<svg xmlns="http://www.w3.org/2000/svg" width="102.912" height="20.11" viewBox="0 0 102.912 20.11">
  <g id="ns3rLO.tif" transform="translate(-520.283 -896.75)">
    <g id="Group_136" data-name="Group 136" transform="translate(520.283 896.75)">
      <path id="Path_833" data-name="Path 833" d="M728.859,916.823c-2.979,0-5.959.038-8.937-.018-1.255-.024-1.555-.472-1.068-1.608,2.418-5.638,4.918-11.241,7.317-16.887.578-1.361,1.623-1.536,2.83-1.541,3.617-.015,7.235-.009,10.852-.009,1.17,0,2.342-.03,3.511.016a4.607,4.607,0,0,1,4.293,2.8c.712,1.629-.111,3.086-1.15,4.371a7.806,7.806,0,0,1-1.088,1.157,4.132,4.132,0,0,0-1.618,4.372c.671,4.248-1.927,7.018-6.323,7.344-.212.016-.425.01-.638.01h-7.98Zm7.466-17.157v-.02a18.884,18.884,0,0,1-2.867-.024,3.335,3.335,0,0,0-4.1,2.565,8.951,8.951,0,0,1-.4.862c-1.046,2.3-.9,2.68,1.708,2.883,2.432.189,4.887.123,7.332.1a4.142,4.142,0,0,0,4.3-4.388c.013-1.445-.346-1.889-1.824-1.964C739.091,899.611,737.706,899.666,736.324,899.666Zm-3.733,8.938v-.025c-.423,0-.847,0-1.27,0-5.206.055-4.167-.717-6.38,4.237-.662,1.482-.551,1.626.993,1.713,2.634.148,5.269.272,7.9.389a4.425,4.425,0,0,0,4.911-3.926c.282-1.446-.24-2.262-1.717-2.366S734.073,908.6,732.591,908.6Z" transform="translate(-691.677 -896.75)" fill="#080808"/>
      <path id="Path_834" data-name="Path 834" d="M536.8,899.746c2.444,0,4.891-.066,7.333.014,4.53.15,7.053,3.763,5.7,8.1a19.016,19.016,0,0,1-6.5,9.2,10.981,10.981,0,0,1-6.823,2.3c-4.781.085-9.565.055-14.347.012-1.944-.017-2.242-.481-1.517-2.322,2.09-5.3,4.241-10.586,6.342-15.887a2.027,2.027,0,0,1,2.159-1.457c2.55.05,5.1.016,7.652.016ZM531.837,915.7a12.4,12.4,0,0,0,9.05-2.624,9.175,9.175,0,0,0,3.656-5.732c.418-2.511-.7-3.83-3.23-3.889-2.755-.065-5.516.067-8.267-.047a2.624,2.624,0,0,0-2.831,1.98c-1.048,2.643-2.189,5.251-3.22,7.9-.743,1.909-.4,2.333,1.788,2.407C529.629,915.728,530.478,915.7,531.837,915.7Z" transform="translate(-520.283 -899.3)" fill="#080808"/>
      <path id="Path_835" data-name="Path 835" d="M1130.5,959.817c-2.125,0-4.251.039-6.375-.014-1.539-.039-1.984-.47-1.653-1.916a33.417,33.417,0,0,1,1.55-4.461,2.747,2.747,0,0,1,2.982-1.85q4.14.126,8.286-.006c1.178-.036,3.211.581,3.263-.926.062-1.771-1.975-.883-3.058-.951-2.541-.158-5.1-.041-7.647-.086-.788-.014-1.853.246-1.992-.987-.136-1.213.744-2.1,2.143-2.108,4.568-.036,9.137,0,13.706-.016,1.192,0,1.717.545,1.748,1.722a16.491,16.491,0,0,1-3.749,10.528,2.821,2.821,0,0,1-2.511,1.082C1134.96,959.79,1132.728,959.818,1130.5,959.817Zm1.1-2.38v-.048c1.276,0,2.559.084,3.826-.025a1.731,1.731,0,0,0,1.59-2.014c-.026-1.214-.951-1.218-1.822-1.226q-2.075-.02-4.15,0a11.7,11.7,0,0,0-2.226.094,1.831,1.831,0,0,0-1.415,2.171c.057,1.01.883,1.037,1.644,1.049C1129.893,957.448,1130.744,957.438,1131.6,957.438Z" transform="translate(-1040.543 -939.736)" fill="#080808"/>
      <path id="Path_836" data-name="Path 836" d="M935.141,948.845c.159,1.931-1.055,3.7-2.472,5.288a3.505,3.505,0,0,1-2.293.716,75.772,75.772,0,0,1-7.653-.005c-2.179-.146-3.714.458-4.585,2.52a4.839,4.839,0,0,1-1.016,1.6,2.97,2.97,0,0,1-1.593.86,11.551,11.551,0,0,1-2.466-.261,13.7,13.7,0,0,1,.57-2.053c1.339-2.991,2.815-5.924,4.066-8.951a2.619,2.619,0,0,1,2.8-1.975c4.252.081,8.507,0,12.761.046C934.9,946.644,935.111,946.927,935.141,948.845Zm-14.379,3.52c1.537,0,3,0,4.457,0,1.161,0,2.327.055,3.481-.035a1.833,1.833,0,0,0,1.875-2.043c-.072-1.224-1.013-1.153-1.853-1.165-1.477-.021-2.955-.027-4.432,0C921.722,949.168,921.722,949.18,920.762,952.365Z" transform="translate(-859.684 -939.807)" fill="#080808"/>
      <path id="Path_837" data-name="Path 837" d="M1065.949,959.115a8.642,8.642,0,0,1-.951-.005c-1.265-.141-1.5-.463-1.018-1.6q2.168-5.078,4.42-10.119a3.041,3.041,0,0,1,3.959-1.382,1.488,1.488,0,0,1,.383,1.333c-.436,1.513-1.013,2.985-1.543,4.471-.6,1.683-1.175,3.377-1.821,5.043C1068.472,959.192,1068.448,959.182,1065.949,959.115Z" transform="translate(-989.889 -939.054)" fill="#080808"/>
      <path id="Path_838" data-name="Path 838" d="M1116.323,900.445a1.845,1.845,0,0,1,1.8,2.082,2.349,2.349,0,0,1-2.263,2.126,2.4,2.4,0,0,1-2.08-2A2.461,2.461,0,0,1,1116.323,900.445Z" transform="translate(-1033.126 -899.94)" fill="#080808"/>
    </g>
  </g>
</svg>
